<svg width="14" height="14" viewBox="0 0 14 14" fill="none" xmlns="http://www.w3.org/2000/svg">
<rect width="14" height="14" rx="2" fill="#7A50F1"/>
<path d="M7.00275 9.36035C7.32501 9.36035 7.60659 9.2627 7.84747 9.06738C8.08836 8.87207 8.22182 8.62793 8.24786 8.33496H9.10236C9.08608 8.6377 8.98191 8.92578 8.78986 9.19922C8.5978 9.47266 8.34064 9.69076 8.01837 9.85352C7.69936 10.0163 7.36082 10.0977 7.00275 10.0977C6.28335 10.0977 5.71043 9.8584 5.284 9.37988C4.86082 8.89811 4.64923 8.24056 4.64923 7.40723V7.25586C4.64923 6.74154 4.74363 6.28418 4.93243 5.88379C5.12124 5.4834 5.39142 5.17253 5.74298 4.95117C6.0978 4.72982 6.51609 4.61914 6.99786 4.61914C7.59031 4.61914 8.08185 4.79655 8.47247 5.15137C8.86635 5.50618 9.07631 5.9668 9.10236 6.5332H8.24786C8.22182 6.19141 8.09161 5.91146 7.85724 5.69336C7.62612 5.47201 7.33966 5.36133 6.99786 5.36133C6.53888 5.36133 6.18243 5.52734 5.92853 5.85938C5.67788 6.18815 5.55255 6.66504 5.55255 7.29004V7.46094C5.55255 8.06966 5.67788 8.53841 5.92853 8.86719C6.17918 9.19596 6.53725 9.36035 7.00275 9.36035Z" fill="#FEFEFE"/>
</svg>
