<svg width="14" height="14" viewBox="0 0 14 14" fill="none" xmlns="http://www.w3.org/2000/svg">
<rect width="14" height="14" rx="2" fill="#F18A50"/>
<path d="M4.5332 4.7168L4.55762 5.30273C4.94499 4.84701 5.46745 4.61914 6.125 4.61914C6.86393 4.61914 7.36686 4.90234 7.63379 5.46875C7.80957 5.21484 8.03743 5.00977 8.31738 4.85352C8.60059 4.69727 8.93424 4.61914 9.31836 4.61914C10.4772 4.61914 11.0664 5.23275 11.0859 6.45996V10H10.1826V6.51367C10.1826 6.13607 10.0964 5.85449 9.92383 5.66895C9.7513 5.48014 9.46159 5.38574 9.05469 5.38574C8.7194 5.38574 8.44108 5.48665 8.21973 5.68848C7.99837 5.88704 7.86979 6.1556 7.83398 6.49414V10H6.92578V6.53809C6.92578 5.76986 6.5498 5.38574 5.79785 5.38574C5.2054 5.38574 4.80013 5.63802 4.58203 6.14258V10H3.67871V4.7168H4.5332Z" fill="#FEFEFE"/>
</svg>
