<svg width="14" height="14" viewBox="0 0 14 14" fill="none" xmlns="http://www.w3.org/2000/svg">
<rect width="14" height="14" rx="2" fill="#8CC742"/>
<path d="M9.14648 6.41699C9.14648 7.22103 8.96257 7.86882 8.59473 8.36035C8.22689 8.85189 7.72884 9.09766 7.10059 9.09766C6.45931 9.09766 5.95475 8.89421 5.58691 8.4873V11.0312H4.68359V3.7168H5.50879L5.55273 4.30273C5.92057 3.84701 6.43164 3.61914 7.08594 3.61914C7.7207 3.61914 8.22201 3.8584 8.58984 4.33691C8.96094 4.81543 9.14648 5.48112 9.14648 6.33398V6.41699ZM8.24316 6.31445C8.24316 5.71875 8.11621 5.24837 7.8623 4.90332C7.6084 4.55827 7.26009 4.38574 6.81738 4.38574C6.27051 4.38574 5.86035 4.62826 5.58691 5.11328V7.6377C5.8571 8.11947 6.27051 8.36035 6.82715 8.36035C7.26009 8.36035 7.60352 8.18945 7.85742 7.84766C8.11458 7.5026 8.24316 6.99154 8.24316 6.31445Z" fill="#FEFEFE"/>
</svg>
